<svg width="1300" height="900" viewBox="0 0 1300 900" fill="none" xmlns="http://www.w3.org/2000/svg">
<rect x="0.5" y="0.5" width="1299" height="899" rx="4.5" fill="#58336B" stroke="black"/>
<rect x="50.5" y="125.5" width="1199" height="649" rx="9.5" fill="white" stroke="black"/>
<path d="M295.198 819.989L289.654 817.492L290.023 816.994L292.618 816.576L299.199 807.687L286.5 816.072L285.497 815.62L288.577 802.754L281.771 811.949L283.055 813.663L282.214 814.142L277.947 812.221L278.316 811.722L280.91 811.305L287.884 801.885L286.653 800.131L287.494 799.652L291.451 801.434L288.538 813.582L300.551 805.531L304.746 807.42L304.377 807.918L301.764 808.328L294.565 818.053L296.039 819.51L295.198 819.989ZM309.693 814.899C310.496 815.26 311.074 815.771 311.429 816.431C311.803 817.085 311.933 817.808 311.818 818.599C311.714 819.395 311.381 820.174 310.818 820.935C310.207 821.76 309.346 822.408 308.235 822.88C307.132 823.341 305.987 823.596 304.798 823.647C303.63 823.692 302.644 823.534 301.842 823.173C301.039 822.812 300.451 822.304 300.076 821.649C299.722 820.99 299.596 820.262 299.7 819.465C299.815 818.674 300.154 817.898 300.718 817.137C301.328 816.312 302.185 815.669 303.288 815.208C304.399 814.737 305.539 814.479 306.707 814.433C307.896 814.382 308.891 814.538 309.693 814.899ZM307.636 815.773C306.262 815.154 304.937 815.708 303.66 817.433C302.906 818.451 302.524 819.415 302.515 820.326C302.514 821.225 302.975 821.883 303.899 822.299C305.273 822.918 306.603 822.359 307.888 820.623C308.633 819.616 309.007 818.662 309.008 817.763C309.017 816.852 308.56 816.189 307.636 815.773ZM321.004 831.609L317.539 830.049L321.55 824.631C321.986 824.042 322.188 823.583 322.156 823.254C322.124 822.925 321.84 822.64 321.305 822.399C320.904 822.219 320.455 822.102 319.959 822.05C319.475 822.004 318.83 822.042 318.025 822.166L314.42 827.036L315.645 828.338L314.804 828.817L309.716 826.526L310.085 826.027L312.541 825.633L315.908 821.084L314.904 819.517L315.273 819.019L319.391 819.073L318.446 821.433L322.38 820.783C322.699 820.812 323.065 820.92 323.478 821.106C324.305 821.478 324.795 821.999 324.948 822.668C325.109 823.326 324.908 824.036 324.345 824.797L320.632 829.812L321.845 831.13L321.004 831.609ZM333.85 837.372L330.385 835.811L331.242 834.654L328.665 835.08C328.213 834.99 327.713 834.822 327.166 834.576C326.364 834.215 325.775 833.707 325.4 833.052C325.046 832.393 324.92 831.665 325.024 830.868C325.139 830.077 325.478 829.301 326.042 828.54C326.653 827.715 327.509 827.072 328.612 826.611C329.723 826.14 330.863 825.882 332.031 825.836C333.22 825.785 334.215 825.941 335.018 826.302C335.686 826.603 336.171 827.043 336.472 827.621L338.924 824.31L338.038 822.583L338.407 822.084L342.287 822.46L342.98 822.772L333.484 835.599L334.691 836.893L333.85 837.372ZM329.108 833.629C329.472 833.793 329.85 833.906 330.242 833.968C330.654 834.025 331.162 834.018 331.766 833.947L334.479 830.282C334.802 829.713 334.838 829.15 334.585 828.594C334.353 828.032 333.811 827.559 332.96 827.176C331.586 826.557 330.261 827.111 328.984 828.836C328.238 829.843 327.848 830.797 327.815 831.696C327.789 832.585 328.22 833.229 329.108 833.629ZM345.195 842.48L341.73 840.92L342.765 839.521L339.645 840.024C339.339 840 339.003 839.906 338.638 839.742C337.593 839.271 337.003 838.699 336.87 838.024C336.749 837.355 336.927 836.699 337.403 836.056C337.689 835.671 338.128 835.361 338.722 835.129C339.316 834.896 340.027 834.745 340.857 834.675L344.978 836.531L345.74 835.502C346.256 834.806 346.408 834.217 346.196 833.736C345.997 833.261 345.533 832.859 344.803 832.53C344.05 832.191 342.828 832.177 341.139 832.488L341.044 831.631L345.027 830.98C345.577 831.114 346.192 831.334 346.873 831.64C347.979 832.138 348.658 832.765 348.909 833.521C349.167 834.267 348.96 835.095 348.285 836.006L344.811 840.699L346.035 842.001L345.195 842.48ZM340.233 838.638C340.975 838.972 341.993 839.031 343.289 838.814L344.49 837.19L341.263 835.737C340.978 835.837 340.735 835.957 340.535 836.095C340.348 836.239 340.178 836.413 340.028 836.617C339.734 837.013 339.596 837.408 339.613 837.802C339.637 838.184 339.844 838.463 340.233 838.638ZM362.599 839.6L352.035 845.56L345.1 848.096L344.764 847.301C345.941 846.96 346.888 846.622 347.606 846.288C348.336 845.959 348.96 845.576 349.479 845.138C349.989 844.71 350.499 844.154 351.006 843.468L352.338 837.53L351.285 835.899L351.653 835.4L355.771 835.454L354.668 838.194L353.346 843.986L359.404 840.434L358.133 837.782L358.974 837.303L362.968 839.102L362.599 839.6Z" fill="white"/>
<path d="M127.175 814.416C127.421 814.084 127.499 813.705 127.409 813.279C127.32 812.852 127.131 812.417 126.844 811.974C126.576 811.525 126.184 810.948 125.668 810.244C125.062 809.399 124.59 808.701 124.253 808.149C123.923 807.587 123.713 807.006 123.621 806.407C123.541 805.814 123.688 805.266 124.061 804.762C124.457 804.226 125.137 803.768 126.1 803.387C127.071 802.995 128.076 802.755 129.114 802.665C130.173 802.571 131.013 802.663 131.633 802.942C132.387 803.281 133.203 803.756 134.08 804.366C134.958 804.975 135.561 805.475 135.888 805.865L133.579 808.984L132.886 808.672C132.933 807.536 132.777 806.565 132.416 805.76C132.068 804.96 131.505 804.385 130.727 804.034C130.034 803.722 129.338 803.666 128.639 803.866C127.96 804.06 127.395 804.463 126.942 805.074C126.681 805.427 126.587 805.828 126.661 806.276C126.755 806.718 126.939 807.158 127.215 807.597C127.502 808.041 127.914 808.633 128.451 809.375C129.057 810.177 129.525 810.859 129.854 811.422C130.191 811.973 130.397 812.538 130.473 813.115C130.568 813.687 130.43 814.224 130.057 814.728C129.66 815.264 128.958 815.719 127.951 816.094C126.952 816.459 125.898 816.678 124.791 816.75C123.703 816.818 122.837 816.707 122.193 816.417C121.403 816.061 120.52 815.556 119.545 814.903C118.582 814.255 117.931 813.733 117.591 813.337L119.9 810.219L120.593 810.531C120.57 811.678 120.776 812.671 121.209 813.509C121.642 814.347 122.278 814.955 123.117 815.332C123.616 815.557 124.131 815.66 124.663 815.642C125.194 815.625 125.679 815.507 126.116 815.289C126.56 815.061 126.913 814.77 127.175 814.416ZM140.428 824.177L136.963 822.617L138.2 820.945L134.623 821.606C134.304 821.577 133.938 821.469 133.525 821.283C132.698 820.911 132.204 820.396 132.043 819.737C131.89 819.068 132.095 818.353 132.658 817.592L135.502 813.751L134.498 812.184L134.867 811.686L138.985 811.739L139.678 812.051L135.442 817.774C135.005 818.363 134.803 818.823 134.835 819.151C134.867 819.48 135.151 819.765 135.686 820.006C136.063 820.176 136.477 820.284 136.929 820.33C137.389 820.366 138.003 820.314 138.771 820.174L141.52 816.46L140.516 814.894L140.885 814.395L145.003 814.449L145.696 814.761L140.044 822.397L141.268 823.698L140.428 824.177ZM153.714 830.181L150.249 828.621L154.259 823.204C154.696 822.615 154.898 822.155 154.866 821.827C154.834 821.498 154.55 821.213 154.015 820.972C153.614 820.791 153.165 820.675 152.669 820.623C152.184 820.576 151.54 820.615 150.735 820.738L147.13 825.609L148.354 826.911L147.514 827.389L142.426 825.098L142.795 824.6L145.251 824.206L148.618 819.656L147.614 818.09L147.983 817.591L152.101 817.645L151.156 820.006L155.09 819.356C155.409 819.385 155.775 819.493 156.188 819.679C157.015 820.051 157.505 820.572 157.658 821.241C157.819 821.899 157.618 822.609 157.055 823.37L153.342 828.385L154.555 829.703L153.714 830.181ZM166.56 835.944L163.095 834.384L163.952 833.227L161.375 833.652C160.923 833.563 160.423 833.395 159.876 833.149C159.073 832.787 158.485 832.28 158.11 831.625C157.756 830.965 157.63 830.237 157.733 829.441C157.849 828.65 158.188 827.874 158.752 827.113C159.362 826.288 160.219 825.645 161.322 825.184C162.433 824.713 163.573 824.454 164.741 824.409C165.93 824.358 166.925 824.513 167.727 824.875C168.396 825.176 168.881 825.616 169.182 826.194L171.633 822.883L170.748 821.155L171.117 820.657L174.997 821.032L175.69 821.344L166.194 834.172L167.401 835.465L166.56 835.944ZM161.817 832.201C162.182 832.365 162.56 832.479 162.952 832.541C163.364 832.597 163.872 832.59 164.475 832.519L167.189 828.854C167.512 828.286 167.548 827.723 167.295 827.166C167.063 826.604 166.521 826.132 165.67 825.749C164.296 825.13 162.971 825.683 161.694 827.409C160.948 828.416 160.558 829.369 160.525 830.269C160.499 831.157 160.93 831.802 161.817 832.201ZM177.905 841.052L174.44 839.492L175.475 838.094L172.355 838.596C172.048 838.573 171.713 838.479 171.348 838.314C170.302 837.844 169.713 837.271 169.58 836.597C169.459 835.928 169.637 835.272 170.113 834.629C170.398 834.243 170.838 833.934 171.432 833.701C172.026 833.469 172.737 833.317 173.567 833.248L177.688 835.104L178.45 834.075C178.965 833.378 179.118 832.79 178.906 832.309C178.707 831.833 178.243 831.431 177.513 831.103C176.76 830.763 175.538 830.749 173.849 831.06L173.754 830.203L177.737 829.553C178.286 829.686 178.902 829.906 179.583 830.213C180.689 830.711 181.367 831.338 181.618 832.094C181.877 832.839 181.669 833.667 180.995 834.578L177.52 839.272L178.745 840.574L177.905 841.052ZM172.943 837.211C173.685 837.545 174.703 837.603 175.998 837.386L177.2 835.763L173.972 834.309C173.687 834.41 173.445 834.529 173.245 834.668C173.057 834.812 172.888 834.986 172.737 835.189C172.444 835.586 172.306 835.981 172.322 836.374C172.347 836.757 172.554 837.036 172.943 837.211ZM195.309 838.173L184.745 844.133L177.81 846.668L177.474 845.874C178.651 845.532 179.598 845.194 180.316 844.86C181.045 844.531 181.67 844.148 182.188 843.71C182.699 843.283 183.208 842.726 183.716 842.04L185.048 836.103L183.994 834.471L184.363 833.973L188.481 834.027L187.377 836.766L186.056 842.558L192.114 839.006L190.843 836.355L191.684 835.876L195.677 837.674L195.309 838.173Z" fill="white"/>
<path d="M459.861 808.338L459.195 808.252L459.114 803.993L456.889 802.992L448.976 813.681L450.462 815.122L449.622 815.601L444.078 813.105L444.447 812.606L447.041 812.189L454.61 801.965L452.44 800.988L447.67 803.063L447.242 802.655L450.217 798.637L450.987 799.37L461.637 804.165L462.836 804.319L459.861 808.338ZM464.652 822.369L461.187 820.809L462.425 819.137L458.847 819.798C458.528 819.769 458.162 819.661 457.749 819.475C456.922 819.103 456.428 818.587 456.267 817.929C456.114 817.26 456.319 816.545 456.883 815.784L459.727 811.942L458.722 810.376L459.091 809.877L463.209 809.931L463.902 810.243L459.666 815.966C459.23 816.555 459.027 817.014 459.06 817.343C459.092 817.672 459.375 817.957 459.91 818.198C460.287 818.367 460.702 818.475 461.154 818.522C461.614 818.557 462.228 818.505 462.996 818.365L465.745 814.652L464.74 813.085L465.109 812.587L469.227 812.641L469.92 812.953L464.268 820.588L465.493 821.89L464.652 822.369ZM472.857 826.106C472.307 825.973 471.692 825.753 471.011 825.447C470.208 825.085 469.62 824.577 469.245 823.923C468.891 823.263 468.765 822.535 468.869 821.738C468.984 820.947 469.323 820.171 469.887 819.411C470.497 818.585 471.354 817.942 472.457 817.482C473.568 817.01 474.708 816.752 475.876 816.706C477.065 816.656 478.06 816.811 478.862 817.172C480.017 817.692 480.613 818.497 480.651 819.585C480.7 820.679 480.237 821.885 479.261 823.203L472.514 820.165C471.912 821.109 471.641 821.979 471.698 822.777C471.768 823.58 472.229 824.173 473.08 824.556C473.87 824.912 475.396 824.878 477.656 824.452L477.751 825.309L472.857 826.106ZM476.805 818.046C475.492 817.455 474.218 817.939 472.983 819.498L477.251 821.419C477.57 820.791 477.779 820.3 477.88 819.945C478.001 819.585 477.986 819.243 477.837 818.918C477.708 818.589 477.364 818.298 476.805 818.046ZM485.538 829.459C485.76 829.159 485.774 828.8 485.579 828.384C485.393 827.957 485.041 827.392 484.525 826.688C484.107 826.114 483.783 825.632 483.552 825.243C483.322 824.853 483.17 824.456 483.097 824.052C483.044 823.642 483.14 823.271 483.386 822.939C483.671 822.553 484.159 822.222 484.849 821.947C485.539 821.672 486.263 821.505 487.02 821.446C487.777 821.386 488.386 821.461 488.848 821.669C489.408 821.921 490.004 822.275 490.639 822.732C491.293 823.184 491.729 823.559 491.946 823.857L490.113 826.332L489.42 826.02C489.523 825.181 489.454 824.464 489.213 823.869C488.98 823.264 488.596 822.841 488.061 822.601C487.685 822.431 487.313 822.385 486.947 822.463C486.589 822.531 486.311 822.698 486.113 822.966C485.867 823.298 485.839 823.686 486.03 824.129C486.241 824.567 486.617 825.143 487.157 825.858C487.571 826.416 487.891 826.882 488.117 827.255C488.343 827.628 488.481 828.012 488.53 828.406C488.599 828.794 488.511 829.154 488.265 829.486C487.971 829.883 487.467 830.213 486.753 830.477C486.059 830.736 485.321 830.89 484.54 830.938C483.77 830.992 483.155 830.915 482.693 830.707C482.097 830.438 481.429 830.059 480.69 829.569C479.971 829.074 479.49 828.672 479.249 828.363L481.081 825.887L481.774 826.199C481.708 827.055 481.828 827.802 482.134 828.44C482.447 829.067 482.902 829.515 483.498 829.783C483.899 829.964 484.289 830.018 484.667 829.945C485.057 829.878 485.347 829.716 485.538 829.459ZM499.582 838.097L496.117 836.537L496.974 835.38L494.397 835.806C493.945 835.716 493.445 835.548 492.898 835.302C492.095 834.941 491.507 834.433 491.132 833.778C490.778 833.118 490.652 832.39 490.755 831.594C490.871 830.803 491.21 830.027 491.774 829.266C492.384 828.441 493.241 827.798 494.344 827.337C495.455 826.866 496.595 826.607 497.763 826.562C498.952 826.511 499.947 826.666 500.749 827.028C501.418 827.329 501.903 827.769 502.204 828.347L504.655 825.036L503.77 823.308L504.139 822.81L508.019 823.185L508.712 823.497L499.216 836.325L500.423 837.619L499.582 838.097ZM494.839 834.354C495.204 834.519 495.582 834.632 495.974 834.694C496.386 834.751 496.894 834.744 497.497 834.672L500.211 831.007C500.534 830.439 500.57 829.876 500.317 829.319C500.085 828.757 499.543 828.285 498.692 827.902C497.318 827.283 495.993 827.836 494.715 829.562C493.97 830.569 493.58 831.523 493.547 832.422C493.521 833.311 493.952 833.955 494.839 834.354ZM510.926 843.206L507.462 841.645L508.497 840.247L505.377 840.75C505.07 840.726 504.735 840.632 504.37 840.468C503.324 839.997 502.735 839.424 502.602 838.75C502.481 838.081 502.659 837.425 503.135 836.782C503.42 836.396 503.86 836.087 504.454 835.854C505.048 835.622 505.759 835.471 506.589 835.401L510.71 837.257L511.472 836.228C511.987 835.532 512.14 834.943 511.928 834.462C511.729 833.986 511.265 833.584 510.535 833.256C509.782 832.917 508.56 832.902 506.871 833.213L506.776 832.356L510.759 831.706C511.308 831.839 511.924 832.059 512.604 832.366C513.711 832.864 514.389 833.491 514.64 834.247C514.899 834.992 514.691 835.82 514.017 836.731L510.542 841.425L511.767 842.727L510.926 843.206ZM505.965 839.364C506.707 839.698 507.725 839.756 509.02 839.54L510.222 837.916L506.994 836.463C506.709 836.563 506.467 836.682 506.267 836.821C506.079 836.965 505.91 837.139 505.759 837.342C505.466 837.739 505.328 838.134 505.344 838.527C505.369 838.91 505.576 839.189 505.965 839.364ZM528.331 840.326L517.767 846.286L510.832 848.821L510.496 848.027C511.673 847.685 512.62 847.348 513.338 847.013C514.067 846.685 514.692 846.301 515.21 845.863C515.721 845.436 516.23 844.879 516.738 844.194L518.07 838.256L517.016 836.624L517.385 836.126L521.503 836.18L520.399 838.919L519.078 844.711L525.136 841.159L523.865 838.508L524.706 838.029L528.699 839.828L528.331 840.326Z" fill="white"/>
<path d="M616.007 801.896L603.836 810.454L601.333 810.42L604.038 801.543L596.323 807.071L593.819 807.037L597.557 793.546L596.503 791.849L597.344 791.371L602.341 793.62L601.972 794.119L599.986 794.403L596.806 805.531L604.473 800.068L605.393 797.052L604.381 795.397L605.222 794.918L610.584 797.332L610.215 797.83L607.771 798.209L604.38 808.899L614.919 801.428L612.387 799.002L613.228 798.523L618.772 801.019L618.403 801.517L616.007 801.896ZM615.162 816.283C614.612 816.15 613.997 815.93 613.316 815.623C612.513 815.262 611.925 814.754 611.55 814.099C611.196 813.44 611.07 812.712 611.173 811.915C611.289 811.124 611.628 810.348 612.192 809.587C612.802 808.762 613.659 808.119 614.762 807.658C615.873 807.187 617.013 806.928 618.181 806.883C619.37 806.832 620.365 806.988 621.167 807.349C622.322 807.869 622.918 808.673 622.956 809.762C623.005 810.856 622.542 812.062 621.566 813.38L614.819 810.341C614.217 811.285 613.945 812.156 614.003 812.954C614.073 813.757 614.534 814.35 615.385 814.733C616.175 815.089 617.701 815.054 619.961 814.629L620.056 815.486L615.162 816.283ZM619.11 808.223C617.797 807.632 616.523 808.115 615.288 809.674L619.556 811.596C619.875 810.968 620.084 810.476 620.185 810.121C620.305 809.761 620.291 809.419 620.142 809.095C620.013 808.765 619.669 808.475 619.11 808.223ZM631.7 823.687L628.235 822.127L629.092 820.969L626.515 821.395C626.063 821.306 625.563 821.138 625.016 820.891C624.214 820.53 623.625 820.022 623.25 819.368C622.896 818.708 622.77 817.98 622.874 817.183C622.989 816.392 623.328 815.616 623.892 814.856C624.503 814.03 625.359 813.387 626.462 812.927C627.573 812.455 628.713 812.197 629.881 812.151C631.07 812.101 632.065 812.256 632.868 812.617C633.536 812.918 634.021 813.358 634.322 813.937L636.774 810.625L635.888 808.898L636.257 808.4L640.137 808.775L640.83 809.087L631.334 821.915L632.541 823.208L631.7 823.687ZM626.958 819.944C627.322 820.108 627.7 820.221 628.092 820.283C628.504 820.34 629.012 820.333 629.616 820.262L632.329 816.597C632.652 816.028 632.688 815.466 632.435 814.909C632.203 814.347 631.661 813.875 630.81 813.491C629.436 812.873 628.111 813.426 626.834 815.151C626.088 816.159 625.698 817.112 625.665 818.012C625.639 818.9 626.07 819.544 626.958 819.944ZM644.82 829.616L641.355 828.056L645.365 822.639C645.802 822.049 646.004 821.59 645.971 821.261C645.939 820.932 645.656 820.648 645.121 820.407C644.72 820.226 644.271 820.11 643.774 820.058C643.29 820.011 642.646 820.049 641.841 820.173L638.235 825.044L639.46 826.345L638.62 826.824L633.532 824.533L633.9 824.035L636.356 823.64L639.724 819.091L638.72 817.524L639.089 817.026L643.207 817.08L642.262 819.441L646.196 818.79C646.515 818.82 646.881 818.927 647.294 819.113C648.121 819.486 648.611 820.006 648.764 820.675C648.925 821.334 648.724 822.043 648.16 822.804L644.448 827.819L645.661 829.137L644.82 829.616ZM652.846 833.251C652.296 833.118 651.681 832.898 651 832.592C650.197 832.23 649.609 831.722 649.234 831.068C648.88 830.408 648.754 829.68 648.858 828.884C648.973 828.092 649.312 827.317 649.876 826.556C650.486 825.73 651.343 825.088 652.446 824.627C653.557 824.155 654.697 823.897 655.865 823.852C657.054 823.801 658.049 823.956 658.851 824.317C660.006 824.838 660.602 825.642 660.64 826.73C660.689 827.824 660.226 829.03 659.25 830.348L652.503 827.31C651.901 828.254 651.629 829.124 651.687 829.922C651.757 830.725 652.218 831.318 653.069 831.702C653.859 832.057 655.385 832.023 657.645 831.597L657.74 832.454L652.846 833.251ZM656.794 825.191C655.481 824.6 654.207 825.084 652.972 826.643L657.24 828.564C657.559 827.936 657.768 827.445 657.869 827.09C657.989 826.73 657.975 826.388 657.826 826.063C657.697 825.734 657.353 825.443 656.794 825.191ZM665.527 836.604C665.749 836.304 665.763 835.945 665.568 835.529C665.382 835.102 665.03 834.537 664.514 833.833C664.096 833.259 663.772 832.777 663.541 832.388C663.311 831.998 663.159 831.601 663.086 831.197C663.033 830.787 663.129 830.416 663.375 830.084C663.66 829.698 664.148 829.367 664.838 829.092C665.528 828.817 666.252 828.65 667.009 828.591C667.766 828.531 668.375 828.606 668.837 828.814C669.397 829.066 669.993 829.42 670.628 829.877C671.282 830.329 671.718 830.704 671.935 831.002L670.102 833.477L669.409 833.165C669.512 832.326 669.443 831.609 669.202 831.014C668.969 830.409 668.585 829.986 668.05 829.746C667.673 829.576 667.302 829.53 666.936 829.608C666.578 829.676 666.3 829.843 666.102 830.111C665.856 830.444 665.828 830.831 666.019 831.274C666.23 831.712 666.606 832.289 667.146 833.003C667.56 833.561 667.88 834.027 668.106 834.4C668.332 834.774 668.47 835.157 668.519 835.551C668.588 835.939 668.5 836.299 668.254 836.631C667.96 837.028 667.456 837.358 666.742 837.622C666.048 837.881 665.31 838.035 664.529 838.083C663.759 838.137 663.144 838.06 662.682 837.852C662.086 837.584 661.418 837.204 660.679 836.714C659.96 836.219 659.479 835.817 659.238 835.508L661.07 833.032L661.763 833.344C661.697 834.2 661.817 834.947 662.123 835.585C662.436 836.212 662.891 836.66 663.487 836.928C663.888 837.109 664.278 837.163 664.656 837.09C665.046 837.023 665.336 836.861 665.527 836.604ZM679.571 845.242L676.106 843.682L676.963 842.525L674.386 842.951C673.934 842.861 673.434 842.693 672.887 842.447C672.084 842.086 671.496 841.578 671.121 840.923C670.767 840.263 670.641 839.535 670.744 838.739C670.86 837.948 671.199 837.172 671.763 836.411C672.373 835.586 673.23 834.943 674.333 834.482C675.444 834.011 676.584 833.752 677.752 833.707C678.94 833.656 679.936 833.811 680.738 834.173C681.407 834.474 681.892 834.914 682.193 835.492L684.644 832.181L683.759 830.453L684.128 829.955L688.008 830.33L688.701 830.643L679.205 843.47L680.412 844.764L679.571 845.242ZM674.828 841.499C675.193 841.664 675.571 841.777 675.963 841.839C676.375 841.896 676.883 841.889 677.486 841.817L680.199 838.152C680.523 837.584 680.559 837.021 680.306 836.464C680.074 835.903 679.532 835.43 678.681 835.047C677.307 834.428 675.982 834.982 674.704 836.707C673.959 837.714 673.569 838.668 673.536 839.567C673.51 840.456 673.941 841.1 674.828 841.499ZM690.915 850.351L687.451 848.79L688.486 847.392L685.366 847.895C685.059 847.871 684.724 847.777 684.359 847.613C683.313 847.142 682.724 846.569 682.591 845.895C682.47 845.226 682.648 844.57 683.124 843.927C683.409 843.541 683.849 843.232 684.443 842.999C685.037 842.767 685.748 842.616 686.578 842.546L690.699 844.402L691.461 843.373C691.976 842.677 692.129 842.088 691.917 841.607C691.718 841.131 691.254 840.729 690.524 840.401C689.771 840.062 688.549 840.047 686.86 840.358L686.765 839.501L690.748 838.851C691.297 838.984 691.913 839.204 692.593 839.511C693.7 840.009 694.378 840.636 694.629 841.392C694.888 842.137 694.68 842.965 694.006 843.876L690.531 848.57L691.756 849.872L690.915 850.351ZM685.954 846.509C686.696 846.843 687.714 846.902 689.009 846.685L690.211 845.061L686.983 843.608C686.698 843.708 686.456 843.827 686.256 843.966C686.068 844.11 685.899 844.284 685.748 844.488C685.455 844.884 685.317 845.279 685.333 845.672C685.358 846.055 685.565 846.334 685.954 846.509ZM708.32 847.471L697.756 853.431L690.821 855.966L690.485 855.172C691.662 854.831 692.609 854.493 693.327 854.158C694.056 853.83 694.681 853.446 695.199 853.008C695.71 852.581 696.219 852.024 696.727 851.339L698.059 845.401L697.005 843.769L697.374 843.271L701.492 843.325L700.388 846.064L699.067 851.856L705.125 848.304L703.854 845.653L704.695 845.174L708.688 846.973L708.32 847.471Z" fill="white"/>
<path d="M782.039 805.607L781.373 805.522L781.291 801.263L779.066 800.261L771.153 810.951L772.64 812.392L771.799 812.87L766.255 810.374L766.624 809.876L769.219 809.458L776.787 799.235L774.617 798.257L769.847 800.332L769.419 799.925L772.394 795.906L773.164 796.639L783.815 801.435L785.014 801.589L782.039 805.607ZM788.65 820.458L785.185 818.898L789.195 813.481C789.632 812.891 789.834 812.432 789.801 812.104C789.769 811.775 789.486 811.49 788.951 811.249C788.55 811.068 788.101 810.952 787.604 810.9C787.12 810.853 786.476 810.892 785.671 811.015L782.065 815.886L783.29 817.188L782.45 817.666L777.362 815.375L777.73 814.877L780.186 814.483L787.505 804.597L786.62 802.869L786.988 802.371L790.868 802.746L791.561 803.058L786.23 810.26L790.014 809.649C790.333 809.678 790.699 809.786 791.112 809.972C791.939 810.344 792.429 810.865 792.582 811.534C792.743 812.192 792.542 812.902 791.979 813.663L788.266 818.678L789.491 819.979L788.65 820.458ZM801.219 826.118L797.754 824.558L798.992 822.886L795.414 823.547C795.095 823.518 794.729 823.41 794.316 823.224C793.489 822.852 792.995 822.336 792.834 821.678C792.681 821.009 792.886 820.294 793.449 819.533L796.294 815.691L795.289 814.124L795.658 813.626L799.776 813.68L800.469 813.992L796.233 819.715C795.797 820.304 795.594 820.763 795.627 821.092C795.659 821.421 795.942 821.706 796.477 821.947C796.854 822.116 797.269 822.224 797.721 822.271C798.18 822.306 798.795 822.254 799.563 822.114L802.312 818.401L801.307 816.834L801.676 816.336L805.794 816.39L806.487 816.702L800.835 824.337L802.06 825.639L801.219 826.118ZM816.238 821.307C816.639 821.488 816.92 821.743 817.082 822.073C817.243 822.402 817.282 822.777 817.198 823.197L815.007 823.989L814.314 823.677C814.463 823.387 814.511 823.158 814.457 822.991C814.422 822.818 814.296 822.683 814.077 822.584C813.809 822.464 813.476 822.399 813.077 822.391C812.698 822.378 812.193 822.458 811.562 822.631L808.016 827.421L810.058 829.262L809.217 829.741L803.217 827.039L803.586 826.541L806.042 826.146L809.41 821.597L808.405 820.03L808.774 819.532L812.892 819.586L811.994 821.818L815.152 820.968C815.471 820.997 815.837 821.105 816.25 821.291L816.238 821.307ZM819.843 832.189C820.065 831.889 820.079 831.531 819.884 831.115C819.698 830.688 819.347 830.122 818.83 829.418C818.412 828.844 818.088 828.363 817.858 827.973C817.627 827.584 817.475 827.187 817.402 826.782C817.349 826.372 817.445 826.001 817.691 825.669C817.977 825.283 818.464 824.953 819.154 824.678C819.844 824.403 820.568 824.235 821.325 824.176C822.082 824.117 822.692 824.191 823.154 824.399C823.713 824.651 824.31 825.006 824.944 825.463C825.598 825.915 826.034 826.289 826.251 826.587L824.419 829.063L823.726 828.751C823.828 827.911 823.759 827.194 823.518 826.6C823.285 825.995 822.902 825.572 822.367 825.331C821.99 825.161 821.618 825.116 821.252 825.194C820.895 825.261 820.616 825.429 820.418 825.697C820.172 826.029 820.145 826.417 820.335 826.86C820.546 827.298 820.922 827.874 821.462 828.589C821.876 829.147 822.196 829.612 822.422 829.986C822.648 830.359 822.786 830.742 822.835 831.136C822.904 831.524 822.816 831.885 822.57 832.217C822.276 832.613 821.773 832.944 821.058 833.208C820.364 833.467 819.626 833.62 818.845 833.669C818.076 833.722 817.46 833.645 816.998 833.437C816.402 833.169 815.735 832.79 814.995 832.3C814.276 831.804 813.795 831.402 813.554 831.093L815.386 828.618L816.079 828.93C816.013 829.786 816.133 830.533 816.439 831.171C816.753 831.798 817.207 832.246 817.803 832.514C818.204 832.694 818.594 832.748 818.972 832.676C819.362 832.609 819.652 832.446 819.843 832.189ZM833.887 840.828L830.422 839.268L831.279 838.11L828.702 838.536C828.25 838.447 827.75 838.279 827.203 838.032C826.401 837.671 825.812 837.163 825.437 836.509C825.083 835.849 824.957 835.121 825.061 834.324C825.176 833.533 825.515 832.757 826.079 831.996C826.69 831.171 827.546 830.528 828.649 830.068C829.76 829.596 830.9 829.338 832.068 829.292C833.257 829.242 834.252 829.397 835.055 829.758C835.723 830.059 836.208 830.499 836.509 831.078L838.961 827.766L838.075 826.039L838.444 825.541L842.324 825.916L843.017 826.228L833.521 839.056L834.728 840.349L833.887 840.828ZM829.145 837.085C829.509 837.249 829.888 837.362 830.279 837.424C830.691 837.481 831.199 837.474 831.803 837.403L834.516 833.738C834.839 833.169 834.875 832.607 834.622 832.05C834.39 831.488 833.848 831.015 832.997 830.632C831.623 830.014 830.298 830.567 829.021 832.292C828.275 833.3 827.885 834.253 827.852 835.152C827.826 836.041 828.257 836.685 829.145 837.085ZM845.232 845.936L841.767 844.376L842.802 842.977L839.682 843.48C839.376 843.456 839.04 843.362 838.675 843.198C837.63 842.727 837.04 842.155 836.907 841.48C836.786 840.812 836.964 840.156 837.44 839.513C837.726 839.127 838.165 838.818 838.759 838.585C839.353 838.352 840.064 838.201 840.894 838.132L845.015 839.987L845.777 838.959C846.293 838.262 846.445 837.673 846.233 837.192C846.034 836.717 845.57 836.315 844.841 835.987C844.087 835.647 842.865 835.633 841.176 835.944L841.081 835.087L845.064 834.437C845.614 834.57 846.229 834.79 846.91 835.096C848.016 835.595 848.695 836.222 848.946 836.978C849.204 837.723 848.997 838.551 848.322 839.462L844.848 844.156L846.072 845.457L845.232 845.936ZM840.27 842.095C841.012 842.428 842.03 842.487 843.326 842.27L844.527 840.647L841.3 839.193C841.015 839.293 840.772 839.413 840.572 839.551C840.385 839.696 840.215 839.869 840.065 840.073C839.771 840.47 839.633 840.864 839.65 841.258C839.674 841.64 839.881 841.919 840.27 842.095ZM862.636 843.056L852.072 849.016L845.137 851.552L844.801 850.758C845.978 850.416 846.925 850.078 847.643 849.744C848.373 849.415 848.997 849.032 849.516 848.594C850.026 848.167 850.536 847.61 851.043 846.924L852.375 840.987L851.322 839.355L851.69 838.857L855.808 838.911L854.705 841.65L853.383 847.442L859.441 843.89L858.17 841.238L859.011 840.76L863.005 842.558L862.636 843.056Z" fill="white"/>
<path d="M961.003 811.863L960.337 811.777L960.274 807.955L955.24 805.688L951.468 810.784L954.331 812.073L957.186 810.615L957.751 810.87L954.49 815.274L953.523 815.267L953.85 812.821L950.914 811.499L947.392 816.257L949.707 818.221L948.866 818.7L942.411 815.793L942.779 815.295L945.374 814.877L952.585 805.136L951.105 803.719L951.946 803.24L962.523 808.003L963.74 808.165L961.003 811.863ZM967.813 815.657C968.214 815.838 968.495 816.093 968.656 816.423C968.817 816.753 968.856 817.127 968.772 817.547L966.581 818.339L965.888 818.027C966.038 817.737 966.086 817.509 966.031 817.341C965.997 817.169 965.87 817.033 965.651 816.935C965.384 816.814 965.051 816.75 964.652 816.742C964.272 816.728 963.768 816.808 963.137 816.981L959.591 821.772L961.632 823.612L960.791 824.091L954.792 821.39L955.16 820.891L957.617 820.497L960.984 815.948L959.98 814.381L960.349 813.883L964.467 813.937L963.568 816.168L966.726 815.318C967.045 815.348 967.411 815.455 967.825 815.641L967.813 815.657ZM969.348 827.923L964.26 825.632L964.629 825.133L967.085 824.739L970.56 820.045L969.674 818.318L970.043 817.819L973.923 818.195L974.616 818.507L968.964 826.142L970.189 827.444L969.348 827.923ZM977.019 813.159C977.384 813.323 977.594 813.575 977.651 813.915C977.72 814.26 977.623 814.609 977.361 814.963C977.179 815.21 976.919 815.407 976.582 815.555C976.253 815.693 975.914 815.769 975.563 815.782C975.213 815.796 974.916 815.748 974.673 815.639C974.308 815.474 974.091 815.22 974.023 814.874C973.966 814.535 974.069 814.188 974.331 813.834C974.513 813.588 974.769 813.396 975.098 813.258C975.435 813.11 975.778 813.029 976.129 813.015C976.479 813.001 976.776 813.049 977.019 813.159ZM982.363 833.783L978.898 832.223L979.755 831.065L977.178 831.491C976.726 831.402 976.226 831.234 975.679 830.988C974.876 830.626 974.288 830.118 973.913 829.464C973.559 828.804 973.433 828.076 973.536 827.279C973.652 826.488 973.991 825.713 974.555 824.952C975.165 824.126 976.022 823.484 977.125 823.023C978.236 822.551 979.376 822.293 980.544 822.248C981.733 822.197 982.728 822.352 983.53 822.713C984.199 823.015 984.684 823.454 984.985 824.033L987.436 820.722L986.551 818.994L986.92 818.496L990.8 818.871L991.493 819.183L981.997 832.011L983.204 833.304L982.363 833.783ZM977.62 830.04C977.985 830.204 978.363 830.317 978.755 830.379C979.167 830.436 979.675 830.429 980.278 830.358L982.992 826.693C983.315 826.124 983.351 825.562 983.098 825.005C982.866 824.443 982.324 823.971 981.473 823.587C980.099 822.969 978.774 823.522 977.497 825.248C976.751 826.255 976.361 827.208 976.328 828.108C976.302 828.996 976.733 829.64 977.62 830.04ZM993.708 838.891L990.243 837.331L991.278 835.933L988.158 836.435C987.851 836.412 987.516 836.318 987.151 836.153C986.105 835.683 985.516 835.11 985.383 834.436C985.262 833.767 985.44 833.111 985.916 832.468C986.201 832.082 986.641 831.773 987.235 831.54C987.829 831.307 988.54 831.156 989.37 831.087L993.491 832.943L994.253 831.914C994.768 831.217 994.921 830.629 994.709 830.148C994.51 829.672 994.046 829.27 993.316 828.942C992.563 828.602 991.341 828.588 989.652 828.899L989.557 828.042L993.54 827.392C994.089 827.525 994.705 827.745 995.386 828.052C996.492 828.55 997.17 829.177 997.421 829.933C997.68 830.678 997.472 831.506 996.798 832.417L993.323 837.111L994.548 838.413L993.708 838.891ZM988.746 835.05C989.488 835.384 990.506 835.442 991.801 835.225L993.003 833.602L989.775 832.148C989.49 832.249 989.248 832.368 989.048 832.507C988.86 832.651 988.691 832.825 988.54 833.028C988.247 833.425 988.109 833.82 988.125 834.213C988.15 834.596 988.357 834.875 988.746 835.05ZM1011.11 836.012L1000.55 841.971L993.613 844.507L993.277 843.713C994.454 843.371 995.401 843.033 996.119 842.699C996.848 842.37 997.473 841.987 997.991 841.549C998.502 841.122 999.011 840.565 999.519 839.879L1000.85 833.942L999.797 832.31L1000.17 831.812L1004.28 831.866L1003.18 834.605L1001.86 840.397L1007.92 836.845L1006.65 834.194L1007.49 833.715L1011.48 835.513L1011.11 836.012Z" fill="white"/>
<path d="M1103.9 810.816C1104.15 810.483 1104.23 810.104 1104.14 809.678C1104.05 809.252 1103.86 808.817 1103.57 808.373C1103.3 807.924 1102.91 807.347 1102.39 806.643C1101.79 805.799 1101.32 805.1 1100.98 804.549C1100.65 803.986 1100.44 803.405 1100.35 802.807C1100.27 802.214 1100.41 801.665 1100.79 801.162C1101.18 800.626 1101.86 800.167 1102.83 799.786C1103.8 799.395 1104.8 799.154 1105.84 799.065C1106.9 798.97 1107.74 799.062 1108.36 799.341C1109.11 799.681 1109.93 800.155 1110.81 800.765C1111.68 801.375 1112.29 801.875 1112.61 802.265L1110.31 805.383L1109.61 805.071C1109.66 803.935 1109.5 802.964 1109.14 802.159C1108.79 801.359 1108.23 800.784 1107.45 800.434C1106.76 800.122 1106.06 800.066 1105.37 800.265C1104.69 800.46 1104.12 800.862 1103.67 801.473C1103.41 801.827 1103.31 802.227 1103.39 802.675C1103.48 803.118 1103.67 803.558 1103.94 803.996C1104.23 804.44 1104.64 805.033 1105.18 805.775C1105.78 806.576 1106.25 807.258 1106.58 807.821C1106.92 808.373 1107.12 808.937 1107.2 809.514C1107.29 810.086 1107.16 810.624 1106.78 811.127C1106.39 811.663 1105.68 812.119 1104.68 812.494C1103.68 812.858 1102.62 813.077 1101.52 813.15C1100.43 813.217 1099.56 813.106 1098.92 812.816C1098.13 812.46 1097.25 811.955 1096.27 811.302C1095.31 810.654 1094.66 810.132 1094.32 809.737L1096.63 806.618L1097.32 806.93C1097.3 808.077 1097.5 809.07 1097.94 809.908C1098.37 810.746 1099 811.354 1099.84 811.732C1100.34 811.956 1100.86 812.06 1101.39 812.042C1101.92 812.024 1102.41 811.906 1102.84 811.689C1103.29 811.46 1103.64 811.169 1103.9 810.816ZM1115.91 820.018L1112.45 818.458L1113.48 817.06L1110.36 817.562C1110.06 817.539 1109.72 817.445 1109.36 817.28C1108.31 816.809 1107.72 816.237 1107.59 815.563C1107.47 814.894 1107.65 814.238 1108.12 813.595C1108.41 813.209 1108.85 812.9 1109.44 812.667C1110.04 812.434 1110.75 812.283 1111.58 812.214L1115.7 814.07L1116.46 813.041C1116.97 812.344 1117.13 811.756 1116.92 811.275C1116.72 810.799 1116.25 810.397 1115.52 810.069C1114.77 809.729 1113.55 809.715 1111.86 810.026L1111.76 809.169L1115.75 808.519C1116.3 808.652 1116.91 808.872 1117.59 809.179C1118.7 809.677 1119.38 810.304 1119.63 811.06C1119.89 811.805 1119.68 812.633 1119 813.544L1115.53 818.238L1116.75 819.539L1115.91 820.018ZM1110.95 816.177C1111.69 816.511 1112.71 816.569 1114.01 816.352L1115.21 814.729L1111.98 813.275C1111.7 813.376 1111.45 813.495 1111.25 813.634C1111.07 813.778 1110.9 813.952 1110.75 814.155C1110.45 814.552 1110.32 814.947 1110.33 815.34C1110.36 815.723 1110.56 816.002 1110.95 816.177ZM1122.91 823.213C1122.57 823.172 1122.2 823.062 1121.8 822.881C1120.79 822.427 1120.22 821.863 1120.08 821.188C1119.97 820.509 1120.27 819.681 1121 818.706L1124.47 814.012L1122.5 813.126L1122.99 812.466L1129.08 810.474L1129.78 810.786L1127.15 814.339L1130.43 815.817L1129.94 816.476L1126.66 814.998L1123.04 819.884C1122.4 820.753 1122.55 821.4 1123.5 821.827C1123.76 821.942 1124.04 822.003 1124.34 822.011C1124.65 822.024 1125.08 821.987 1125.61 821.899L1125.71 822.756L1122.91 823.213ZM1136.8 829.422L1133.33 827.862L1134.57 826.19L1130.99 826.851C1130.67 826.822 1130.31 826.714 1129.89 826.528C1129.07 826.155 1128.57 825.64 1128.41 824.982C1128.26 824.313 1128.46 823.598 1129.03 822.837L1131.87 818.995L1130.87 817.428L1131.24 816.93L1135.35 816.984L1136.05 817.296L1131.81 823.019C1131.38 823.608 1131.17 824.067 1131.21 824.396C1131.24 824.725 1131.52 825.01 1132.06 825.25C1132.43 825.42 1132.85 825.528 1133.3 825.575C1133.76 825.61 1134.37 825.558 1135.14 825.418L1137.89 821.705L1136.89 820.138L1137.25 819.64L1141.37 819.694L1142.07 820.006L1136.41 827.641L1137.64 828.943L1136.8 829.422ZM1151.82 824.611C1152.22 824.791 1152.5 825.047 1152.66 825.376C1152.82 825.706 1152.86 826.081 1152.78 826.5L1150.59 827.293L1149.89 826.981C1150.04 826.691 1150.09 826.462 1150.04 826.295C1150 826.122 1149.87 825.987 1149.66 825.888C1149.39 825.768 1149.05 825.703 1148.66 825.695C1148.28 825.682 1147.77 825.761 1147.14 825.935L1143.59 830.725L1145.64 832.566L1144.8 833.044L1138.8 830.343L1139.16 829.845L1141.62 829.45L1144.99 824.901L1143.98 823.334L1144.35 822.836L1148.47 822.89L1147.57 825.122L1150.73 824.272C1151.05 824.301 1151.42 824.409 1151.83 824.595L1151.82 824.611ZM1159.28 839.545L1155.81 837.985L1156.67 836.827L1154.09 837.253C1153.64 837.164 1153.14 836.996 1152.59 836.749C1151.79 836.388 1151.2 835.88 1150.83 835.226C1150.47 834.566 1150.35 833.838 1150.45 833.041C1150.57 832.25 1150.91 831.474 1151.47 830.713C1152.08 829.888 1152.94 829.245 1154.04 828.785C1155.15 828.313 1156.29 828.055 1157.46 828.009C1158.65 827.959 1159.64 828.114 1160.45 828.475C1161.11 828.776 1161.6 829.216 1161.9 829.795L1164.35 826.483L1163.47 824.756L1163.84 824.257L1167.72 824.633L1168.41 824.945L1158.91 837.773L1160.12 839.066L1159.28 839.545ZM1154.54 835.802C1154.9 835.966 1155.28 836.079 1155.67 836.141C1156.08 836.198 1156.59 836.191 1157.19 836.12L1159.91 832.455C1160.23 831.886 1160.27 831.324 1160.01 830.767C1159.78 830.205 1159.24 829.732 1158.39 829.349C1157.02 828.731 1155.69 829.284 1154.41 831.009C1153.67 832.017 1153.28 832.97 1153.24 833.869C1153.22 834.758 1153.65 835.402 1154.54 835.802ZM1170.62 844.653L1167.16 843.093L1168.19 841.694L1165.07 842.197C1164.77 842.173 1164.43 842.079 1164.07 841.915C1163.02 841.444 1162.43 840.872 1162.3 840.197C1162.18 839.529 1162.36 838.873 1162.83 838.23C1163.12 837.844 1163.56 837.535 1164.15 837.302C1164.74 837.069 1165.46 836.918 1166.29 836.849L1170.41 838.704L1171.17 837.676C1171.68 836.979 1171.84 836.39 1171.63 835.909C1171.43 835.434 1170.96 835.032 1170.23 834.703C1169.48 834.364 1168.26 834.35 1166.57 834.661L1166.47 833.804L1170.46 833.154C1171.01 833.287 1171.62 833.507 1172.3 833.813C1173.41 834.312 1174.09 834.939 1174.34 835.695C1174.6 836.44 1174.39 837.268 1173.71 838.179L1170.24 842.873L1171.46 844.174L1170.62 844.653ZM1165.66 840.811C1166.4 841.145 1167.42 841.204 1168.72 840.987L1169.92 839.363L1166.69 837.91C1166.41 838.01 1166.16 838.13 1165.96 838.268C1165.78 838.412 1165.61 838.586 1165.46 838.79C1165.16 839.186 1165.02 839.581 1165.04 839.975C1165.07 840.357 1165.27 840.636 1165.66 840.811ZM1188.03 841.773L1177.46 847.733L1170.53 850.269L1170.19 849.475C1171.37 849.133 1172.32 848.795 1173.03 848.461C1173.76 848.132 1174.39 847.749 1174.91 847.311C1175.42 846.883 1175.93 846.327 1176.44 845.641L1177.77 839.704L1176.71 838.072L1177.08 837.574L1181.2 837.627L1180.1 840.367L1178.78 846.159L1184.83 842.607L1183.56 839.955L1184.4 839.477L1188.4 841.275L1188.03 841.773Z" fill="white"/>
<rect x="98.5" y="341.5" width="60" height="433" fill="#47EE55" stroke="black"/>
<rect x="159.5" y="262.5" width="60" height="512" fill="#EE004B" stroke="black"/>
<rect x="260.5" y="556.5" width="60" height="218" fill="#47EE55" stroke="black"/>
<rect x="321.5" y="522.5" width="60" height="252" fill="#EE004B" stroke="black"/>
<rect x="422.5" y="274.5" width="60" height="500" fill="#47EE55" stroke="black"/>
<rect x="483.5" y="176.5" width="60" height="598" fill="#EE004B" stroke="black"/>
<rect x="584.5" y="454.5" width="60" height="320" fill="#47EE55" stroke="black"/>
<rect x="645.5" y="416.5" width="60" height="358" fill="#EE004B" stroke="black"/>
<rect x="746.5" y="692.5" width="60" height="82" fill="#47EE55" stroke="black"/>
<rect x="807.5" y="652.5" width="60" height="122" fill="#EE004B" stroke="black"/>
<rect x="622.5" y="33.5" width="29" height="62" fill="#47EE55" stroke="black"/>
<rect x="659.5" y="33.5" width="29" height="62" fill="#EE004B" stroke="black"/>
<rect x="908.5" y="300.5" width="60" height="474" fill="#47EE55" stroke="black"/>
<rect x="969.5" y="262.5" width="60" height="512" fill="#EE004B" stroke="black"/>
<rect x="1070.5" y="542.5" width="60" height="232" fill="#47EE55" stroke="black"/>
<rect x="1131.5" y="498.5" width="60" height="276" fill="#EE004B" stroke="black"/>
<path d="M377.017 55.1C378.391 55.1 379.604 55.4333 380.657 56.1C381.724 56.7533 382.544 57.6667 383.117 58.84C383.704 60.0133 383.997 61.34 383.997 62.82C383.997 64.34 383.551 65.7467 382.657 67.04C381.777 68.32 380.677 69.34 379.357 70.1C378.051 70.8467 376.797 71.22 375.597 71.22C374.984 71.22 374.364 71.1867 373.737 71.12C372.711 71.0533 371.917 71.02 371.357 71.02H368.817V70.4L370.697 68.92V56.76L368.617 56.08L369.017 55.28H371.337C372.604 55.28 373.837 55.24 375.037 55.16C375.944 55.1067 376.604 55.08 377.017 55.08V55.1ZM376.157 69.74C377.117 69.74 377.991 69.4867 378.777 68.98C379.564 68.46 380.177 67.7467 380.617 66.84C381.071 65.92 381.297 64.8933 381.297 63.76C381.297 62.4 381.084 61.1667 380.657 60.06C380.231 58.94 379.577 58.0467 378.697 57.38C377.831 56.7133 376.751 56.38 375.457 56.38C374.644 56.38 373.891 56.62 373.197 57.1V69.24C374.011 69.5733 374.997 69.74 376.157 69.74ZM392.071 71H386.491V70.38L388.271 68.98V63.14L386.491 61.9V61.28L389.911 60H390.671V69.5L392.471 70.2L392.071 71ZM389.391 54C389.791 54 390.117 54.1467 390.371 54.44C390.637 54.7333 390.771 55.1 390.771 55.54C390.771 55.8467 390.677 56.14 390.491 56.42C390.304 56.6867 390.071 56.9 389.791 57.06C389.511 57.22 389.237 57.3 388.971 57.3C388.571 57.3 388.237 57.1533 387.971 56.86C387.717 56.5667 387.591 56.2 387.591 55.76C387.591 55.4533 387.684 55.1667 387.871 54.9C388.057 54.62 388.291 54.4 388.571 54.24C388.851 54.08 389.124 54 389.391 54ZM400.704 68.84C400.704 68.4667 400.497 68.1267 400.084 67.82C399.671 67.5 399.037 67.12 398.184 66.68C397.491 66.32 396.931 66.0067 396.504 65.74C396.077 65.4733 395.711 65.1667 395.404 64.82C395.111 64.46 394.964 64.0733 394.964 63.66C394.964 63.18 395.164 62.6667 395.564 62.12C395.964 61.5733 396.457 61.1133 397.044 60.74C397.631 60.3667 398.177 60.18 398.684 60.18C399.297 60.18 400.004 60.26 400.804 60.42C401.617 60.5667 402.204 60.7333 402.564 60.92V64H401.804C401.377 63.1733 400.884 62.5333 400.324 62.08C399.764 61.6133 399.191 61.38 398.604 61.38C398.191 61.38 397.857 61.4933 397.604 61.72C397.351 61.9333 397.224 62.2067 397.224 62.54C397.224 62.9533 397.437 63.3267 397.864 63.66C398.304 63.98 398.964 64.36 399.844 64.8C400.524 65.1467 401.071 65.4467 401.484 65.7C401.897 65.9533 402.244 66.2533 402.524 66.6C402.817 66.9333 402.964 67.3067 402.964 67.72C402.964 68.2133 402.751 68.7333 402.324 69.28C401.911 69.8133 401.397 70.2667 400.784 70.64C400.184 71.0133 399.631 71.2 399.124 71.2C398.471 71.2 397.691 71.1267 396.784 70.98C395.891 70.82 395.251 70.6467 394.864 70.46V67.38H395.624C396.091 68.2067 396.644 68.8533 397.284 69.32C397.924 69.7733 398.571 70 399.224 70C399.664 70 400.017 69.8867 400.284 69.66C400.564 69.4333 400.704 69.16 400.704 68.84ZM411.136 71.04C410.829 71.1467 410.456 71.2 410.016 71.2C408.909 71.2 408.096 70.9133 407.576 70.34C407.069 69.7533 406.816 68.8533 406.816 67.64V61.8H404.656V60.98L408.456 56.56H409.216V60.98H412.816V61.8H409.216V67.88C409.216 68.96 409.736 69.5 410.776 69.5C411.056 69.5 411.323 69.44 411.576 69.32C411.843 69.2 412.169 68.9867 412.556 68.68L413.156 69.44L411.136 71.04ZM424.977 71H421.177V69.26L418.917 71.04C418.65 71.1467 418.317 71.2 417.917 71.2C416.77 71.2 415.937 70.9133 415.417 70.34C414.91 69.7667 414.657 69.08 414.657 68.28C414.657 67.8 414.83 67.3267 415.177 66.86C415.524 66.3933 416.017 65.9533 416.657 65.54H421.177V64.26C421.177 63.3933 420.944 62.78 420.477 62.42C420.024 62.06 419.397 61.88 418.597 61.88C417.77 61.88 416.757 62.38 415.557 63.38L414.957 62.62L417.837 60.34C418.37 60.2333 419.01 60.18 419.757 60.18C420.97 60.18 421.91 60.48 422.577 61.08C423.244 61.6667 423.577 62.5267 423.577 63.66V69.5L425.377 70.2L424.977 71ZM418.557 69.5C419.37 69.5 420.244 69.1267 421.177 68.38V66.36H417.637C417.464 66.5733 417.337 66.7867 417.257 67C417.19 67.2133 417.157 67.4467 417.157 67.7C417.157 68.1933 417.284 68.62 417.537 68.98C417.79 69.3267 418.13 69.5 418.557 69.5ZM439.359 71.02H435.559V64.28C435.559 63.5467 435.446 63.0333 435.219 62.74C434.992 62.4467 434.586 62.3 433.999 62.3C433.559 62.3 433.119 62.38 432.679 62.54C432.252 62.7 431.746 63.0067 431.159 63.46V69.52L432.959 70.22L432.559 71.02H426.979V70.4L428.759 69V63.34L426.979 62.3V61.68L430.399 60L431.059 62.6L433.899 60.34C434.179 60.2333 434.546 60.18 434.999 60.18C435.906 60.18 436.626 60.46 437.159 61.02C437.692 61.5667 437.959 62.3133 437.959 63.26V69.5L439.759 70.22L439.359 71.02ZM447.274 60.18C447.821 60.18 448.454 60.26 449.174 60.42C449.907 60.5667 450.434 60.7333 450.754 60.92V64H449.994C449.474 63.3333 448.874 62.8133 448.194 62.44C447.527 62.0533 446.834 61.86 446.114 61.86C445.501 61.86 445.034 62.1333 444.714 62.68C444.407 63.2267 444.254 64.0267 444.254 65.08C444.254 66.3333 444.527 67.3867 445.074 68.24C445.621 69.08 446.401 69.5 447.414 69.5C448.174 69.5 449.254 68.9533 450.654 67.86L451.254 68.62L448.174 71.04C447.641 71.1467 447.001 71.2 446.254 71.2C445.374 71.2 444.581 70.9733 443.874 70.52C443.181 70.0533 442.634 69.4267 442.234 68.64C441.847 67.8533 441.654 66.9867 441.654 66.04C441.654 65.0133 441.941 64.0467 442.514 63.14C443.101 62.2333 443.834 61.5133 444.714 60.98C445.594 60.4467 446.447 60.18 447.274 60.18ZM460.44 71.04C459.906 71.1467 459.266 71.2 458.52 71.2C457.64 71.2 456.846 70.9733 456.14 70.52C455.446 70.0533 454.9 69.4267 454.5 68.64C454.113 67.8533 453.92 66.9867 453.92 66.04C453.92 65.0133 454.233 64.0533 454.86 63.16C455.486 62.2533 456.266 61.5333 457.2 61C458.146 60.4533 459.06 60.18 459.94 60.18C461.206 60.18 462.186 60.68 462.88 61.68C463.586 62.68 463.94 64 463.94 65.64H456.54C456.62 66.7733 456.926 67.7 457.46 68.42C458.006 69.14 458.746 69.5 459.68 69.5C460.546 69.5 461.78 68.8267 463.38 67.48L463.98 68.24L460.44 71.04ZM458.78 61.86C457.34 61.86 456.586 62.8467 456.52 64.82H461.2C461.08 64.1 460.953 63.5533 460.82 63.18C460.7 62.7933 460.48 62.48 460.16 62.24C459.853 61.9867 459.393 61.86 458.78 61.86ZM486.197 59.92L485.597 60.12L482.937 56.18H480.497V69.48L482.597 70.2L482.197 71H476.117V70.38L477.997 68.9V56.18H475.617L472.957 60.12L472.357 59.92V54.92L473.437 55.28H485.117L486.197 54.92V59.92ZM494.121 60.2C494.561 60.2 494.947 60.32 495.281 60.56C495.614 60.8 495.874 61.1333 496.061 61.56L494.741 63.22H493.981C493.927 62.8867 493.827 62.6533 493.681 62.52C493.547 62.3733 493.361 62.3 493.121 62.3C492.827 62.3 492.514 62.38 492.181 62.54C491.861 62.6867 491.494 62.9733 491.081 63.4V69.36L493.881 70.22L493.481 71.02H486.901V70.4L488.681 69V63.34L486.901 62.3V61.68L490.321 60L490.941 62.46L493.021 60.34C493.301 60.2333 493.667 60.18 494.121 60.18V60.2ZM507.497 71H503.697V69.26L501.437 71.04C501.17 71.1467 500.837 71.2 500.437 71.2C499.29 71.2 498.457 70.9133 497.937 70.34C497.43 69.7667 497.177 69.08 497.177 68.28C497.177 67.8 497.35 67.3267 497.697 66.86C498.043 66.3933 498.537 65.9533 499.177 65.54H503.697V64.26C503.697 63.3933 503.463 62.78 502.997 62.42C502.543 62.06 501.917 61.88 501.117 61.88C500.29 61.88 499.277 62.38 498.077 63.38L497.477 62.62L500.357 60.34C500.89 60.2333 501.53 60.18 502.277 60.18C503.49 60.18 504.43 60.48 505.097 61.08C505.763 61.6667 506.097 62.5267 506.097 63.66V69.5L507.897 70.2L507.497 71ZM501.077 69.5C501.89 69.5 502.763 69.1267 503.697 68.38V66.36H500.157C499.983 66.5733 499.857 66.7867 499.777 67C499.71 67.2133 499.677 67.4467 499.677 67.7C499.677 68.1933 499.803 68.62 500.057 68.98C500.31 69.3267 500.65 69.5 501.077 69.5ZM520.058 61L514.998 71H513.478L510.358 63.38L508.498 62.3V61.68L511.918 60L512.678 63.02L515.118 68.98L517.938 63.12L515.278 61.18L515.678 60.38H520.058V61ZM528.115 71.04C527.582 71.1467 526.942 71.2 526.195 71.2C525.315 71.2 524.522 70.9733 523.815 70.52C523.122 70.0533 522.575 69.4267 522.175 68.64C521.789 67.8533 521.595 66.9867 521.595 66.04C521.595 65.0133 521.909 64.0533 522.535 63.16C523.162 62.2533 523.942 61.5333 524.875 61C525.822 60.4533 526.735 60.18 527.615 60.18C528.882 60.18 529.862 60.68 530.555 61.68C531.262 62.68 531.615 64 531.615 65.64H524.215C524.295 66.7733 524.602 67.7 525.135 68.42C525.682 69.14 526.422 69.5 527.355 69.5C528.222 69.5 529.455 68.8267 531.055 67.48L531.655 68.24L528.115 71.04ZM526.455 61.86C525.015 61.86 524.262 62.8467 524.195 64.82H528.875C528.755 64.1 528.629 63.5533 528.495 63.18C528.375 62.7933 528.155 62.48 527.835 62.24C527.529 61.9867 527.069 61.86 526.455 61.86ZM539.327 71H533.747V70.38L535.527 68.98V56.68L533.747 55.44V54.82L537.167 53.54H537.927V69.5L539.727 70.2L539.327 71ZM548.35 71.04C547.816 71.1467 547.176 71.2 546.43 71.2C545.55 71.2 544.756 70.9733 544.05 70.52C543.356 70.0533 542.81 69.4267 542.41 68.64C542.023 67.8533 541.83 66.9867 541.83 66.04C541.83 65.0133 542.143 64.0533 542.77 63.16C543.396 62.2533 544.176 61.5333 545.11 61C546.056 60.4533 546.97 60.18 547.85 60.18C549.116 60.18 550.096 60.68 550.79 61.68C551.496 62.68 551.85 64 551.85 65.64H544.45C544.53 66.7733 544.836 67.7 545.37 68.42C545.916 69.14 546.656 69.5 547.59 69.5C548.456 69.5 549.69 68.8267 551.29 67.48L551.89 68.24L548.35 71.04ZM546.69 61.86C545.25 61.86 544.496 62.8467 544.43 64.82H549.11C548.99 64.1 548.863 63.5533 548.73 63.18C548.61 62.7933 548.39 62.48 548.07 62.24C547.763 61.9867 547.303 61.86 546.69 61.86ZM566.461 71H562.661V69.56L560.801 71.04C560.375 71.1467 559.861 71.2 559.261 71.2C558.381 71.2 557.588 70.9733 556.881 70.52C556.188 70.0533 555.641 69.4267 555.241 68.64C554.855 67.8533 554.661 66.9867 554.661 66.04C554.661 65.0133 554.975 64.0533 555.601 63.16C556.228 62.2533 557.008 61.5333 557.941 61C558.888 60.4533 559.801 60.18 560.681 60.18C561.415 60.18 562.081 60.3867 562.681 60.8V56.68L560.901 55.44V54.82L564.321 53.54H565.081V69.5L566.861 70.2L566.461 71ZM560.281 69.5C560.681 69.5 561.061 69.4467 561.421 69.34C561.795 69.22 562.208 69 562.661 68.68V64.12C562.581 63.4533 562.268 62.9133 561.721 62.5C561.188 62.0733 560.455 61.86 559.521 61.86C558.015 61.86 557.261 62.9333 557.261 65.08C557.261 66.3333 557.521 67.3867 558.041 68.24C558.561 69.08 559.308 69.5 560.281 69.5Z" fill="white"/>
<path d="M764.076 54.88C764.783 54.88 765.596 54.98 766.516 55.18C767.45 55.38 768.13 55.5933 768.556 55.82V59.7H767.796C766.57 57.6067 764.943 56.56 762.916 56.56C762.036 56.56 761.23 56.82 760.496 57.34C759.776 57.8467 759.21 58.56 758.796 59.48C758.383 60.3867 758.176 61.4067 758.176 62.54C758.176 63.8467 758.376 65.04 758.776 66.12C759.19 67.2 759.81 68.0667 760.636 68.72C761.476 69.3733 762.51 69.7 763.736 69.7C764.87 69.7 766.496 68.8467 768.616 67.14L769.216 68.1L765.536 70.96C765.043 71.1333 764.563 71.2467 764.096 71.3C763.643 71.3667 763.15 71.4 762.616 71.4C761.216 71.4 759.976 71.06 758.896 70.38C757.816 69.7 756.976 68.7667 756.376 67.58C755.776 66.38 755.476 65.02 755.476 63.5C755.476 61.94 755.93 60.5 756.836 59.18C757.743 57.8467 758.87 56.8 760.216 56.04C761.563 55.2667 762.85 54.88 764.076 54.88ZM782.002 71H778.202V69.26L775.942 71.04C775.676 71.1467 775.342 71.2 774.942 71.2C773.796 71.2 772.962 70.9133 772.442 70.34C771.936 69.7667 771.682 69.08 771.682 68.28C771.682 67.8 771.856 67.3267 772.202 66.86C772.549 66.3933 773.042 65.9533 773.682 65.54H778.202V64.26C778.202 63.3933 777.969 62.78 777.502 62.42C777.049 62.06 776.422 61.88 775.622 61.88C774.796 61.88 773.782 62.38 772.582 63.38L771.982 62.62L774.862 60.34C775.396 60.2333 776.036 60.18 776.782 60.18C777.996 60.18 778.936 60.48 779.602 61.08C780.269 61.6667 780.602 62.5267 780.602 63.66V69.5L782.402 70.2L782.002 71ZM775.582 69.5C776.396 69.5 777.269 69.1267 778.202 68.38V66.36H774.662C774.489 66.5733 774.362 66.7867 774.282 67C774.216 67.2133 774.182 67.4467 774.182 67.7C774.182 68.1933 774.309 68.62 774.562 68.98C774.816 69.3267 775.156 69.5 775.582 69.5ZM789.184 71H783.604V70.38L785.384 68.98V56.68L783.604 55.44V54.82L787.024 53.54H787.784V69.5L789.584 70.2L789.184 71ZM797.707 60.18C798.587 60.18 799.374 60.4133 800.067 60.88C800.774 61.3333 801.32 61.9533 801.707 62.74C802.107 63.5267 802.307 64.3933 802.307 65.34C802.307 66.3667 801.994 67.3333 801.367 68.24C800.74 69.1333 799.954 69.8533 799.007 70.4C798.074 70.9333 797.167 71.2 796.287 71.2C795.407 71.2 794.614 70.9733 793.907 70.52C793.214 70.0533 792.667 69.4267 792.267 68.64C791.88 67.8533 791.687 66.9867 791.687 66.04C791.687 65.0133 792 64.0533 792.627 63.16C793.254 62.2533 794.034 61.5333 794.967 61C795.914 60.4533 796.827 60.18 797.707 60.18ZM796.547 61.86C795.04 61.86 794.287 62.9333 794.287 65.08C794.287 66.3467 794.56 67.4067 795.107 68.26C795.654 69.1 796.434 69.52 797.447 69.52C798.954 69.52 799.707 68.44 799.707 66.28C799.707 65.0267 799.434 63.98 798.887 63.14C798.34 62.2867 797.56 61.86 796.547 61.86ZM812.025 60.2C812.465 60.2 812.852 60.32 813.185 60.56C813.518 60.8 813.778 61.1333 813.965 61.56L812.645 63.22H811.885C811.832 62.8867 811.732 62.6533 811.585 62.52C811.452 62.3733 811.265 62.3 811.025 62.3C810.732 62.3 810.418 62.38 810.085 62.54C809.765 62.6867 809.398 62.9733 808.985 63.4V69.36L811.785 70.22L811.385 71.02H804.805V70.4L806.585 69V63.34L804.805 62.3V61.68L808.225 60L808.845 62.46L810.925 60.34C811.205 60.2333 811.572 60.18 812.025 60.18V60.2ZM820.756 71H815.176V70.38L816.956 68.98V63.14L815.176 61.9V61.28L818.596 60H819.356V69.5L821.156 70.2L820.756 71ZM818.076 54C818.476 54 818.803 54.1467 819.056 54.44C819.323 54.7333 819.456 55.1 819.456 55.54C819.456 55.8467 819.363 56.14 819.176 56.42C818.99 56.6867 818.756 56.9 818.476 57.06C818.196 57.22 817.923 57.3 817.656 57.3C817.256 57.3 816.923 57.1533 816.656 56.86C816.403 56.5667 816.276 56.2 816.276 55.76C816.276 55.4533 816.37 55.1667 816.556 54.9C816.743 54.62 816.976 54.4 817.256 54.24C817.536 54.08 817.81 54 818.076 54ZM829.77 71.04C829.236 71.1467 828.596 71.2 827.85 71.2C826.97 71.2 826.176 70.9733 825.47 70.52C824.776 70.0533 824.23 69.4267 823.83 68.64C823.443 67.8533 823.25 66.9867 823.25 66.04C823.25 65.0133 823.563 64.0533 824.19 63.16C824.816 62.2533 825.596 61.5333 826.53 61C827.476 60.4533 828.39 60.18 829.27 60.18C830.536 60.18 831.516 60.68 832.21 61.68C832.916 62.68 833.27 64 833.27 65.64H825.87C825.95 66.7733 826.256 67.7 826.79 68.42C827.336 69.14 828.076 69.5 829.01 69.5C829.876 69.5 831.11 68.8267 832.71 67.48L833.31 68.24L829.77 71.04ZM828.11 61.86C826.67 61.86 825.916 62.8467 825.85 64.82H830.53C830.41 64.1 830.283 63.5533 830.15 63.18C830.03 62.7933 829.81 62.48 829.49 62.24C829.183 61.9867 828.723 61.86 828.11 61.86ZM842.241 68.84C842.241 68.4667 842.035 68.1267 841.621 67.82C841.208 67.5 840.575 67.12 839.721 66.68C839.028 66.32 838.468 66.0067 838.041 65.74C837.615 65.4733 837.248 65.1667 836.941 64.82C836.648 64.46 836.501 64.0733 836.501 63.66C836.501 63.18 836.701 62.6667 837.101 62.12C837.501 61.5733 837.995 61.1133 838.581 60.74C839.168 60.3667 839.715 60.18 840.221 60.18C840.835 60.18 841.541 60.26 842.341 60.42C843.155 60.5667 843.741 60.7333 844.101 60.92V64H843.341C842.915 63.1733 842.421 62.5333 841.861 62.08C841.301 61.6133 840.728 61.38 840.141 61.38C839.728 61.38 839.395 61.4933 839.141 61.72C838.888 61.9333 838.761 62.2067 838.761 62.54C838.761 62.9533 838.975 63.3267 839.401 63.66C839.841 63.98 840.501 64.36 841.381 64.8C842.061 65.1467 842.608 65.4467 843.021 65.7C843.435 65.9533 843.781 66.2533 844.061 66.6C844.355 66.9333 844.501 67.3067 844.501 67.72C844.501 68.2133 844.288 68.7333 843.861 69.28C843.448 69.8133 842.935 70.2667 842.321 70.64C841.721 71.0133 841.168 71.2 840.661 71.2C840.008 71.2 839.228 71.1267 838.321 70.98C837.428 70.82 836.788 70.6467 836.401 70.46V67.38H837.161C837.628 68.2067 838.181 68.8533 838.821 69.32C839.461 69.7733 840.108 70 840.761 70C841.201 70 841.555 69.8867 841.821 69.66C842.101 69.4333 842.241 69.16 842.241 68.84ZM862.739 62.54C863.766 62.8333 864.572 63.3267 865.159 64.02C865.746 64.7133 866.039 65.5133 866.039 66.42C866.039 67.26 865.699 68.0533 865.019 68.8C864.352 69.5333 863.512 70.12 862.499 70.56C861.499 71 860.546 71.22 859.639 71.22C858.972 71.22 858.319 71.1867 857.679 71.12C856.612 71.0533 855.786 71.02 855.199 71.02H852.659V70.4L854.539 68.92V56.76L852.459 56.08L852.859 55.28H855.179C856.392 55.28 857.586 55.24 858.759 55.16C859.666 55.1067 860.332 55.08 860.759 55.08C861.652 55.08 862.439 55.2533 863.119 55.6C863.799 55.9467 864.319 56.42 864.679 57.02C865.052 57.6067 865.239 58.2667 865.239 59C865.239 59.6667 865.006 60.3067 864.539 60.92C864.086 61.52 863.486 62.0467 862.739 62.5V62.54ZM862.539 60C862.539 58.9467 862.259 58.0867 861.699 57.42C861.139 56.7533 860.306 56.42 859.199 56.42C858.399 56.42 857.679 56.6467 857.039 57.1V62.4H859.899C860.726 62.4 861.372 62.1933 861.839 61.78C862.306 61.3533 862.539 60.7533 862.539 59.98V60ZM860.199 69.76C861.159 69.76 861.919 69.52 862.479 69.04C863.052 68.56 863.339 67.9133 863.339 67.1C863.339 66.06 863.032 65.22 862.419 64.58C861.819 63.94 860.919 63.6 859.719 63.56C859.626 63.5733 859.499 63.58 859.339 63.58H857.039V69.24C857.932 69.6 858.986 69.78 860.199 69.78V69.76ZM880.12 71H876.32V68.92L873.78 71.04C873.5 71.1467 873.134 71.2 872.68 71.2C871.774 71.2 871.054 70.9267 870.52 70.38C869.987 69.82 869.72 69.0667 869.72 68.12V63.34L867.94 62.3V61.68L871.36 60H872.12V67.12C872.12 67.8533 872.234 68.3667 872.46 68.66C872.687 68.9533 873.094 69.1 873.68 69.1C874.094 69.1 874.5 69.0267 874.9 68.88C875.3 68.72 875.774 68.4133 876.32 67.96V63.34L874.54 62.3V61.68L877.96 60H878.72V69.5L880.52 70.2L880.12 71ZM889.545 60.2C889.985 60.2 890.371 60.32 890.705 60.56C891.038 60.8 891.298 61.1333 891.485 61.56L890.165 63.22H889.405C889.351 62.8867 889.251 62.6533 889.105 62.52C888.971 62.3733 888.785 62.3 888.545 62.3C888.251 62.3 887.938 62.38 887.605 62.54C887.285 62.6867 886.918 62.9733 886.505 63.4V69.36L889.305 70.22L888.905 71.02H882.325V70.4L884.105 69V63.34L882.325 62.3V61.68L885.745 60L886.365 62.46L888.445 60.34C888.725 60.2333 889.091 60.18 889.545 60.18V60.2ZM905.076 71.02H901.276V64.28C901.276 63.5467 901.162 63.0333 900.936 62.74C900.709 62.4467 900.302 62.3 899.716 62.3C899.276 62.3 898.836 62.38 898.396 62.54C897.969 62.7 897.462 63.0067 896.876 63.46V69.52L898.676 70.22L898.276 71.02H892.696V70.4L894.476 69V63.34L892.696 62.3V61.68L896.116 60L896.776 62.6L899.616 60.34C899.896 60.2333 900.262 60.18 900.716 60.18C901.622 60.18 902.342 60.46 902.876 61.02C903.409 61.5667 903.676 62.3133 903.676 63.26V69.5L905.476 70.22L905.076 71.02ZM913.891 71.04C913.357 71.1467 912.717 71.2 911.971 71.2C911.091 71.2 910.297 70.9733 909.591 70.52C908.897 70.0533 908.351 69.4267 907.951 68.64C907.564 67.8533 907.371 66.9867 907.371 66.04C907.371 65.0133 907.684 64.0533 908.311 63.16C908.937 62.2533 909.717 61.5333 910.651 61C911.597 60.4533 912.511 60.18 913.391 60.18C914.657 60.18 915.637 60.68 916.331 61.68C917.037 62.68 917.391 64 917.391 65.64H909.991C910.071 66.7733 910.377 67.7 910.911 68.42C911.457 69.14 912.197 69.5 913.131 69.5C913.997 69.5 915.231 68.8267 916.831 67.48L917.431 68.24L913.891 71.04ZM912.231 61.86C910.791 61.86 910.037 62.8467 909.971 64.82H914.651C914.531 64.1 914.404 63.5533 914.271 63.18C914.151 62.7933 913.931 62.48 913.611 62.24C913.304 61.9867 912.844 61.86 912.231 61.86ZM932.002 71H928.202V69.56L926.342 71.04C925.916 71.1467 925.402 71.2 924.802 71.2C923.922 71.2 923.129 70.9733 922.422 70.52C921.729 70.0533 921.182 69.4267 920.782 68.64C920.396 67.8533 920.202 66.9867 920.202 66.04C920.202 65.0133 920.516 64.0533 921.142 63.16C921.769 62.2533 922.549 61.5333 923.482 61C924.429 60.4533 925.342 60.18 926.222 60.18C926.956 60.18 927.622 60.3867 928.222 60.8V56.68L926.442 55.44V54.82L929.862 53.54H930.622V69.5L932.402 70.2L932.002 71ZM925.822 69.5C926.222 69.5 926.602 69.4467 926.962 69.34C927.336 69.22 927.749 69 928.202 68.68V64.12C928.122 63.4533 927.809 62.9133 927.262 62.5C926.729 62.0733 925.996 61.86 925.062 61.86C923.556 61.86 922.802 62.9333 922.802 65.08C922.802 66.3333 923.062 67.3867 923.582 68.24C924.102 69.08 924.849 69.5 925.822 69.5Z" fill="white"/>
</svg>
