<svg width="88" height="85" viewBox="0 0 88 85" fill="none" xmlns="http://www.w3.org/2000/svg">
<path d="M43.8322 36.4195C30.2358 36.4156 10.9515 59.692 10.9472 74.3885C10.9453 81.0074 15.5345 84.9631 23.2273 84.9654C31.5896 84.9678 37.1127 80.2129 43.8193 80.2148C50.5842 80.2168 56.1199 84.975 64.4086 84.9774C72.1014 84.9797 76.6929 81.0267 76.6949 74.4077C76.6992 59.7113 57.4286 36.4235 43.8322 36.4195ZM18.6159 34.0206C16.8372 27.4485 11.3526 23.191 6.36635 24.5096C1.3801 25.8281 -1.21915 32.2244 0.559584 38.7965C2.33832 45.3686 7.8229 49.6261 12.8091 48.3076C17.7954 46.989 20.3947 40.5927 18.6159 34.0206ZM33.1226 30.0838C38.4206 28.5416 41.0734 20.6147 39.0486 12.3793C37.0237 4.14383 31.0875 -1.28017 25.7896 0.262076C20.4916 1.80432 17.8389 9.73115 19.8637 17.9666C21.8885 26.202 27.8264 31.6279 33.1226 30.0838ZM81.3033 24.5334C76.3178 23.212 70.8324 27.4662 69.0481 34.0373C67.2655 40.6083 69.861 47.0062 74.8465 48.3276C79.832 49.6491 85.3174 45.3948 87.1017 38.8238C88.8842 32.2527 86.2887 25.8549 81.3033 24.5334ZM54.5454 30.0901C59.8424 31.6354 65.7819 26.2149 67.8115 17.9807C69.8411 9.7464 67.193 1.81991 61.896 0.272662C56.599 -1.27459 50.6595 4.14783 48.6299 12.3821C46.6003 20.6163 49.2484 28.5447 54.5454 30.0901Z" fill="white"/>
</svg>
